<svg width="48" height="48" viewBox="0 0 48 48" fill="none" xmlns="http://www.w3.org/2000/svg">
<rect x="0.5" y="0.5" width="47" height="47" rx="3.5" stroke="#BFBFBF"/>
<path d="M37.3333 15.7334C36.3311 16.1682 35.2712 16.4556 34.1867 16.5867C35.3309 15.9031 36.1884 14.8277 36.6 13.56C35.5247 14.2001 34.3477 14.6511 33.12 14.8934C32.2994 14.0035 31.2066 13.4111 30.0131 13.2092C28.8195 13.0072 27.5927 13.2072 26.5251 13.7776C25.4574 14.3481 24.6092 15.2567 24.1137 16.3612C23.6181 17.4656 23.5031 18.7032 23.7867 19.88C21.6126 19.7701 19.4859 19.204 17.5449 18.2185C15.6038 17.2331 13.8918 15.8503 12.52 14.16C12.0388 15.0003 11.786 15.9518 11.7867 16.92C11.785 17.8192 12.0056 18.7049 12.429 19.4981C12.8524 20.2914 13.4654 20.9676 14.2133 21.4667C13.344 21.443 12.4932 21.2098 11.7333 20.7867V20.8534C11.7398 22.1132 12.1813 23.3322 12.9831 24.304C13.7848 25.2758 14.8977 25.9409 16.1333 26.1867C15.6577 26.3315 15.1638 26.4078 14.6667 26.4134C14.3225 26.4093 13.9792 26.3781 13.64 26.32C13.9919 27.4038 14.6728 28.3509 15.5881 29.0296C16.5034 29.7083 17.6074 30.0848 18.7467 30.1067C16.8229 31.6204 14.4478 32.4465 12 32.4534C11.5543 32.4548 11.109 32.4281 10.6667 32.3734C13.1659 33.987 16.0784 34.8437 19.0533 34.84C21.1063 34.8614 23.1428 34.4734 25.0442 33.6988C26.9455 32.9242 28.6734 31.7785 30.1269 30.3287C31.5805 28.8788 32.7306 27.1539 33.5101 25.2546C34.2895 23.3553 34.6827 21.3197 34.6667 19.2667V18.56C35.7129 17.7798 36.6153 16.8233 37.3333 15.7334Z" fill="#BFBFBF"/>
</svg>
