<svg width="36" height="36" viewBox="0 0 36 36" fill="none" xmlns="http://www.w3.org/2000/svg">
<rect width="36" height="36" rx="8" fill="#E7F5FF"/>
<path d="M15.5625 8.25H9.1875C8.66973 8.25 8.25 8.66973 8.25 9.1875V15.5625C8.25 16.0803 8.66973 16.5 9.1875 16.5H15.5625C16.0803 16.5 16.5 16.0803 16.5 15.5625V9.1875C16.5 8.66973 16.0803 8.25 15.5625 8.25Z" stroke="#053559" stroke-width="1.5" stroke-linecap="round" stroke-linejoin="round"/>
<path d="M26.8125 8.25H20.4375C19.9197 8.25 19.5 8.66973 19.5 9.1875V15.5625C19.5 16.0803 19.9197 16.5 20.4375 16.5H26.8125C27.3303 16.5 27.75 16.0803 27.75 15.5625V9.1875C27.75 8.66973 27.3303 8.25 26.8125 8.25Z" stroke="#053559" stroke-width="1.5" stroke-linecap="round" stroke-linejoin="round"/>
<path d="M15.5625 19.5H9.1875C8.66973 19.5 8.25 19.9197 8.25 20.4375V26.8125C8.25 27.3303 8.66973 27.75 9.1875 27.75H15.5625C16.0803 27.75 16.5 27.3303 16.5 26.8125V20.4375C16.5 19.9197 16.0803 19.5 15.5625 19.5Z" stroke="#053559" stroke-width="1.5" stroke-linecap="round" stroke-linejoin="round"/>
<path d="M26.8125 19.5H20.4375C19.9197 19.5 19.5 19.9197 19.5 20.4375V26.8125C19.5 27.3303 19.9197 27.75 20.4375 27.75H26.8125C27.3303 27.75 27.75 27.3303 27.75 26.8125V20.4375C27.75 19.9197 27.3303 19.5 26.8125 19.5Z" stroke="#053559" stroke-width="1.5" stroke-linecap="round" stroke-linejoin="round"/>
</svg>
