<svg width="16" height="16" viewBox="0 0 16 16" fill="none" xmlns="http://www.w3.org/2000/svg">
<path d="M4.80074 4.79883C4.80074 4.69274 4.84288 4.591 4.9179 4.51599C4.99291 4.44097 5.09465 4.39883 5.20074 4.39883H7.60074C7.70683 4.39883 7.80857 4.44097 7.88358 4.51599C7.9586 4.591 8.00074 4.69274 8.00074 4.79883C8.00074 4.90491 7.9586 5.00666 7.88358 5.08167C7.80857 5.15668 7.70683 5.19883 7.60074 5.19883H5.20074C5.09465 5.19883 4.99291 5.15668 4.9179 5.08167C4.84288 5.00666 4.80074 4.90491 4.80074 4.79883ZM5.20074 5.99883C5.09465 5.99883 4.99291 6.04097 4.9179 6.11599C4.84288 6.191 4.80074 6.29274 4.80074 6.39883C4.80074 6.50491 4.84288 6.60666 4.9179 6.68167C4.99291 6.75669 5.09465 6.79883 5.20074 6.79883H6.80074C6.90683 6.79883 7.00857 6.75669 7.08358 6.68167C7.1586 6.60666 7.20074 6.50491 7.20074 6.39883C7.20074 6.29274 7.1586 6.191 7.08358 6.11599C7.00857 6.04097 6.90683 5.99883 6.80074 5.99883H5.20074ZM6.40074 0.798828C5.56798 0.798548 4.74947 1.01493 4.02564 1.42671C3.30181 1.83849 2.69757 2.4315 2.27228 3.14747C1.84699 3.86344 1.61528 4.67774 1.59994 5.51036C1.58459 6.34298 1.78612 7.16527 2.18474 7.89643L1.61674 9.88843C1.59675 9.95837 1.59622 10.0324 1.6152 10.1027C1.63418 10.1729 1.67195 10.2366 1.72445 10.287C1.77694 10.3373 1.84218 10.3724 1.91314 10.3885C1.98409 10.4045 2.05808 10.4009 2.12714 10.378L3.99754 9.75483C4.63503 10.1232 5.34871 10.34 6.08339 10.3884C6.81807 10.4369 7.55404 10.3156 8.23437 10.0341C8.9147 9.75262 9.52115 9.31839 10.0068 8.765C10.4925 8.21162 10.8443 7.55394 11.0351 6.84282C11.2259 6.13171 11.2506 5.38623 11.1072 4.66406C10.9639 3.94188 10.6563 3.26237 10.2082 2.67809C9.76023 2.09382 9.18382 1.62043 8.52359 1.29456C7.86336 0.968693 7.13701 0.799074 6.40074 0.798828ZM2.40074 5.59883C2.40087 4.71131 2.69616 3.84904 3.24013 3.14777C3.78411 2.4465 4.54586 1.94605 5.40546 1.72522C6.26507 1.50439 7.1737 1.57571 7.98832 1.92797C8.80294 2.28022 9.47728 2.89339 9.90516 3.67095C10.3331 4.44851 10.4902 5.34629 10.3518 6.22296C10.2135 7.09963 9.78751 7.90539 9.14096 8.51338C8.49441 9.12138 7.66402 9.49709 6.78051 9.58135C5.897 9.66561 5.01056 9.45365 4.26074 8.97883C4.21058 8.94703 4.15398 8.9268 4.09503 8.9196C4.03608 8.91241 3.97627 8.91843 3.91994 8.93723L2.59354 9.37963L3.00154 7.95483C3.0164 7.90235 3.02038 7.84739 3.01323 7.79333C3.00607 7.73926 2.98794 7.68723 2.95994 7.64043C2.59263 7.02286 2.39939 6.31737 2.40074 5.59883ZM9.82154 11.9564L7.89994 10.9964C8.25194 10.898 8.59034 10.7668 8.91034 10.606L10.0007 11.1516L13.6007 9.35163V8.79883C13.6007 8.58665 13.5165 8.38317 13.3664 8.23314C13.2164 8.08311 13.0129 7.99883 12.8007 7.99883H11.4615C11.5839 7.74283 11.6863 7.47483 11.7687 7.19883H12.8007C13.2251 7.19883 13.6321 7.3674 13.9321 7.66746C14.2322 7.96751 14.4007 8.37448 14.4007 8.79883V12.7988C14.4007 13.2232 14.2322 13.6301 13.9321 13.9302C13.6321 14.2303 13.2251 14.3988 12.8007 14.3988H7.20074C6.77639 14.3988 6.36943 14.2303 6.06937 13.9302C5.76931 13.6301 5.60074 13.2232 5.60074 12.7988V11.1428C5.86234 11.1796 6.12874 11.1988 6.40074 11.1988V12.7988C6.40074 13.011 6.48502 13.2145 6.63505 13.3645C6.78508 13.5145 6.98857 13.5988 7.20074 13.5988H12.8007C13.0129 13.5988 13.2164 13.5145 13.3664 13.3645C13.5165 13.2145 13.6007 13.011 13.6007 12.7988V10.246L10.1799 11.9564C10.1243 11.9843 10.063 11.9988 10.0007 11.9988C9.93852 11.9988 9.87716 11.9843 9.82154 11.9564Z" fill="#0D1821"/>
</svg>
