<svg width="20" height="21" viewBox="0 0 20 21" fill="none" xmlns="http://www.w3.org/2000/svg">
<path d="M5.20086 6.19922C5.20086 6.04009 5.26408 5.88748 5.3766 5.77496C5.48912 5.66243 5.64173 5.59922 5.80086 5.59922H9.40086C9.55999 5.59922 9.71261 5.66243 9.82513 5.77496C9.93765 5.88748 10.0009 6.04009 10.0009 6.19922C10.0009 6.35835 9.93765 6.51096 9.82513 6.62348C9.71261 6.73601 9.55999 6.79922 9.40086 6.79922H5.80086C5.64173 6.79922 5.48912 6.73601 5.3766 6.62348C5.26408 6.51096 5.20086 6.35835 5.20086 6.19922ZM5.80086 7.99922C5.64173 7.99922 5.48912 8.06243 5.3766 8.17496C5.26408 8.28748 5.20086 8.44009 5.20086 8.59922C5.20086 8.75835 5.26408 8.91096 5.3766 9.02348C5.48912 9.13601 5.64173 9.19922 5.80086 9.19922H8.20086C8.35999 9.19922 8.5126 9.13601 8.62513 9.02348C8.73765 8.91096 8.80086 8.75835 8.80086 8.59922C8.80086 8.44009 8.73765 8.28748 8.62513 8.17496C8.5126 8.06243 8.35999 7.99922 8.20086 7.99922H5.80086ZM7.60086 0.199219C6.35172 0.198799 5.12396 0.523368 4.03822 1.14104C2.95248 1.7587 2.04611 2.64822 1.40817 3.72218C0.770237 4.79614 0.422683 6.01759 0.399661 7.26652C0.376638 8.51545 0.67894 9.74888 1.27686 10.8456L0.424862 13.8336C0.394882 13.9385 0.394084 14.0497 0.422552 14.155C0.45102 14.2603 0.507676 14.3559 0.586424 14.4315C0.665172 14.507 0.763028 14.5596 0.869462 14.5837C0.975896 14.6078 1.08688 14.6023 1.19046 14.568L3.99606 13.6332C4.95229 14.1858 6.02283 14.511 7.12484 14.5836C8.22685 14.6563 9.33081 14.4744 10.3513 14.0522C11.3718 13.6299 12.2815 12.9786 13.01 12.1485C13.7385 11.3184 14.2662 10.3319 14.5525 9.26521C14.8387 8.19854 14.8757 7.08032 14.6606 5.99706C14.4455 4.9138 13.9841 3.89453 13.3121 3.01812C12.6401 2.1417 11.7755 1.43162 10.7851 0.94282C9.79479 0.454016 8.70527 0.199588 7.60086 0.199219ZM1.60086 7.39922C1.60106 6.06794 2.044 4.77454 2.85996 3.72263C3.67591 2.67072 4.81854 1.92005 6.10795 1.58881C7.39735 1.25756 8.76031 1.36455 9.98224 1.89292C11.2042 2.4213 12.2157 3.34106 12.8575 4.5074C13.4993 5.67374 13.735 7.02042 13.5275 8.33542C13.32 9.65042 12.681 10.8591 11.7112 11.7711C10.7414 12.6831 9.49578 13.2466 8.17052 13.373C6.84526 13.4994 5.51559 13.1815 4.39086 12.4692C4.31563 12.4215 4.23072 12.3912 4.1423 12.3804C4.05387 12.3696 3.96416 12.3786 3.87966 12.4068L1.89006 13.0704L2.50206 10.9332C2.52436 10.8545 2.53033 10.7721 2.5196 10.691C2.50887 10.6099 2.48166 10.5318 2.43966 10.4616C1.88869 9.53528 1.59884 8.47703 1.60086 7.39922ZM12.7321 16.9356L9.84966 15.4956C10.3777 15.348 10.8853 15.1512 11.3653 14.91L13.0009 15.7284L18.4009 13.0284V12.1992C18.4009 11.881 18.2744 11.5757 18.0494 11.3507C17.8243 11.1256 17.5191 10.9992 17.2009 10.9992H15.1921C15.3757 10.6152 15.5293 10.2132 15.6529 9.79922H17.2009C17.8374 9.79922 18.4478 10.0521 18.8979 10.5022C19.348 10.9523 19.6009 11.5627 19.6009 12.1992V18.1992C19.6009 18.8357 19.348 19.4462 18.8979 19.8963C18.4478 20.3464 17.8374 20.5992 17.2009 20.5992H8.80086C8.16434 20.5992 7.55389 20.3464 7.10381 19.8963C6.65372 19.4462 6.40086 18.8357 6.40086 18.1992V15.7152C6.79326 15.7704 7.19286 15.7992 7.60086 15.7992V18.1992C7.60086 18.5175 7.72729 18.8227 7.95233 19.0477C8.17738 19.2728 8.4826 19.3992 8.80086 19.3992H17.2009C17.5191 19.3992 17.8243 19.2728 18.0494 19.0477C18.2744 18.8227 18.4009 18.5175 18.4009 18.1992V14.37L13.2697 16.9356C13.1862 16.9774 13.0942 16.9992 13.0009 16.9992C12.9075 16.9992 12.8155 16.9774 12.7321 16.9356Z" fill="#0D1821"/>
</svg>
