<svg width="99" height="15" viewBox="0 0 99 15" fill="none" xmlns="http://www.w3.org/2000/svg">
<path d="M0.882 14V1.13H4.842L7.488 9.338H7.524L10.17 1.13H14.13V14H11.07V5.99H11.034L8.64 14H6.372L3.978 5.99H3.942V14H0.882ZM17.1537 3.686C16.3437 3.686 15.7137 3.254 15.7137 2.408C15.7137 1.58 16.3437 1.13 17.1537 1.13C17.9637 1.13 18.5937 1.58 18.5937 2.408C18.5937 3.254 17.9637 3.686 17.1537 3.686ZM15.7137 4.784H18.5937V14H15.7137V4.784ZM25.9608 8.222C25.8708 7.484 25.4748 6.656 24.3228 6.656C23.1348 6.656 22.4688 7.664 22.4688 9.392C22.4688 11.12 23.1168 12.128 24.3228 12.128C25.4748 12.128 25.8708 11.354 25.9608 10.526H28.7868C28.6428 12.704 26.9868 14.288 24.3408 14.288C21.4248 14.288 19.5888 12.272 19.5888 9.392C19.5888 6.53 21.4248 4.496 24.2688 4.496C26.9508 4.496 28.5528 6.08 28.7868 8.222H25.9608ZM34.8895 4.622C35.1415 4.622 35.3575 4.622 35.6815 4.694V7.214H35.6455C34.1695 6.944 32.6035 7.754 32.6035 9.716V14H29.7235V4.784H32.6035V6.296H32.6395C33.0895 5.27 33.8815 4.622 34.8895 4.622ZM40.9563 14.288C37.8783 14.288 36.0243 12.254 36.0243 9.392C36.0243 6.53 37.8783 4.496 40.9563 4.496C44.0163 4.496 45.8703 6.53 45.8703 9.392C45.8703 12.254 44.0163 14.288 40.9563 14.288ZM40.9563 12.128C42.2163 12.128 42.9903 11.174 42.9903 9.392C42.9903 7.61 42.2163 6.656 40.9563 6.656C39.6783 6.656 38.9043 7.61 38.9043 9.392C38.9043 11.174 39.6783 12.128 40.9563 12.128ZM46.7362 8.222H51.6322V10.688H46.7362V8.222ZM53.0895 1.13H56.3295V14H53.0895V1.13ZM63.8588 4.496C65.6408 4.496 66.8468 5.666 66.8468 7.772V14H63.9668V8.69C63.9668 7.304 63.4808 6.836 62.5268 6.836C61.4288 6.836 60.7988 7.394 60.7988 8.672V14H57.9188V4.784H60.7988V6.116H60.8348C61.3208 5.27 62.2208 4.496 63.8588 4.496ZM73.3546 3.308C72.1306 3.308 71.7526 3.308 71.7526 4.388V4.784H73.3546V6.944H71.7526V14H68.8726V6.944H67.5046V4.784H68.8726V4.154C68.8726 2.084 69.4666 0.967999 71.5726 0.967999C72.3826 0.967999 72.8326 1.04 73.3546 1.148V3.308ZM74.302 1.13H77.182V14H74.302V1.13ZM84.5843 4.784H87.4643V14H84.5843V12.668H84.5483C84.0623 13.514 83.1623 14.288 81.5243 14.288C79.7423 14.288 78.5363 13.118 78.5363 11.012V4.784H81.4163V10.094C81.4163 11.48 81.9023 11.948 82.8563 11.948C83.9543 11.948 84.5843 11.39 84.5843 10.112V4.784ZM88.6579 4.784H91.7179L93.1939 7.448H93.2299L94.7059 4.784H97.7659L94.9579 9.302L98.1259 14H94.8859L93.2299 11.156H93.1939L91.5379 14H88.2979L91.4659 9.302L88.6579 4.784Z" fill="#053559"/>
</svg>
